<svg width="13" height="12" viewBox="0 0 13 12" fill="none" xmlns="http://www.w3.org/2000/svg">
<path d="M2.79636 3.85156H0.38468C0.277646 3.85156 0.190918 3.93833 0.190918 4.04532V11.793C0.190918 11.9001 0.277646 11.9868 0.38468 11.9868H2.79636C2.9034 11.9868 2.99013 11.9001 2.99013 11.793V4.04532C2.99013 3.93833 2.9034 3.85156 2.79636 3.85156Z" fill="white"/>
<path d="M1.59141 0C0.713899 0 0 0.713123 0 1.58967C0 2.4666 0.713899 3.17999 1.59141 3.17999C2.46822 3.17999 3.18154 2.46656 3.18154 1.58967C3.18158 0.713123 2.46822 0 1.59141 0Z" fill="white"/>
<path d="M8.93083 3.65869C7.96221 3.65869 7.24618 4.07509 6.81188 4.54822V4.04502C6.81188 3.93802 6.72515 3.85125 6.61812 3.85125H4.30851C4.20147 3.85125 4.11475 3.93802 4.11475 4.04502V11.7927C4.11475 11.8998 4.20147 11.9865 4.30851 11.9865H6.71492C6.82196 11.9865 6.90868 11.8998 6.90868 11.7927V7.9594C6.90868 6.66767 7.25955 6.16443 8.16 6.16443C9.14067 6.16443 9.21861 6.97118 9.21861 8.02587V11.7928C9.21861 11.8998 9.30533 11.9865 9.41237 11.9865H11.8197C11.9267 11.9865 12.0134 11.8998 12.0134 11.7928V7.54301C12.0134 5.62224 11.6472 3.65869 8.93083 3.65869Z" fill="white"/>
</svg>
