<svg width="13" height="14" viewBox="0 0 13 14" fill="none" xmlns="http://www.w3.org/2000/svg">
<path d="M9.98037 2.32031C9.57529 2.32031 9.20703 2.65174 9.20703 3.09365C9.20703 3.49873 9.53846 3.86699 9.98037 3.86699C10.3855 3.86699 10.7537 3.53556 10.7537 3.09365C10.7169 2.65174 10.3855 2.32031 9.98037 2.32031Z" fill="white"/>
<path d="M6.5549 3.31445C4.78727 3.31445 3.35107 4.75065 3.35107 6.51828C3.35107 8.28591 4.78727 9.72211 6.5549 9.72211C8.32253 9.72211 9.75873 8.28591 9.75873 6.51828C9.79555 4.75065 8.32253 3.31445 6.5549 3.31445ZM6.5549 8.58051C5.41331 8.58051 4.49267 7.65987 4.49267 6.51828C4.49267 5.37669 5.41331 4.45605 6.5549 4.45605C7.69649 4.45605 8.61713 5.37669 8.61713 6.51828C8.61713 7.65987 7.69649 8.58051 6.5549 8.58051Z" fill="white"/>
<path d="M9.13275 13.0363H3.90351C1.76763 13.0363 0 11.2686 0 9.09593V3.90351C0 1.7308 1.76763 0 3.90351 0H9.09592C11.2686 0 12.9994 1.76763 12.9994 3.90351V9.09593C13.0363 11.2686 11.2686 13.0363 9.13275 13.0363ZM3.90351 1.21525C2.43049 1.21525 1.21524 2.43049 1.21524 3.90351V9.09593C1.21524 10.5689 2.43049 11.7842 3.90351 11.7842H9.09592C10.5689 11.7842 11.7842 10.5689 11.7842 9.09593V3.90351C11.7842 2.43049 10.5689 1.21525 9.09592 1.21525H3.90351Z" fill="white"/>
</svg>
