<svg width="16" height="16" viewBox="0 0 16 16" fill="none" xmlns="http://www.w3.org/2000/svg">
<path d="M6.91667 2C6.91667 1.86193 6.80474 1.75 6.66667 1.75H2C1.86193 1.75 1.75 1.86193 1.75 2V6.66667C1.75 6.80474 1.86193 6.91667 2 6.91667H6.66667C6.80474 6.91667 6.91667 6.80474 6.91667 6.66667V2Z" stroke="white" stroke-width="0.5" stroke-linecap="round" stroke-linejoin="round"/>
<path d="M14.2502 2C14.2502 1.86193 14.1382 1.75 14.0002 1.75H9.3335C9.19542 1.75 9.0835 1.86193 9.0835 2V6.66667C9.0835 6.80474 9.19542 6.91667 9.3335 6.91667H14.0002C14.1382 6.91667 14.2502 6.80474 14.2502 6.66667V2Z" stroke="white" stroke-width="0.5" stroke-linecap="round" stroke-linejoin="round"/>
<path d="M14.2502 9.33334C14.2502 9.19527 14.1382 9.08334 14.0002 9.08334H9.3335C9.19542 9.08334 9.0835 9.19527 9.0835 9.33334V14C9.0835 14.1381 9.19542 14.25 9.3335 14.25H14.0002C14.1382 14.25 14.2502 14.1381 14.2502 14V9.33334Z" stroke="white" stroke-width="0.5" stroke-linecap="round" stroke-linejoin="round"/>
<path d="M6.91667 9.33334C6.91667 9.19527 6.80474 9.08334 6.66667 9.08334H2C1.86193 9.08334 1.75 9.19527 1.75 9.33334V14C1.75 14.1381 1.86193 14.25 2 14.25H6.66667C6.80474 14.25 6.91667 14.1381 6.91667 14V9.33334Z" stroke="white" stroke-width="0.5" stroke-linecap="round" stroke-linejoin="round"/>
</svg>
