<svg width="15" height="13" viewBox="0 0 15 13" fill="none" xmlns="http://www.w3.org/2000/svg">
<path d="M0.937648 5.34989C0.937648 5.34989 7.16288 2.70147 9.32189 1.7689C10.1495 1.3959 12.9563 0.202203 12.9563 0.202203C12.9563 0.202203 14.2517 -0.319995 14.1438 0.948252C14.1077 1.4705 13.8199 3.29827 13.532 5.27529C13.1002 8.07296 12.6324 11.1317 12.6324 11.1317C12.6324 11.1317 12.5605 11.9897 11.9487 12.1389C11.337 12.2881 10.3294 11.6167 10.1495 11.4674C10.0056 11.3556 7.45073 9.67694 6.51516 8.85629C6.26326 8.63249 5.9754 8.18489 6.55111 7.66264C7.84656 6.43167 9.39385 4.9023 10.3294 3.93245C10.7613 3.4848 11.193 2.44035 9.39385 3.7086C6.83902 5.53642 4.32014 7.25232 4.32014 7.25232C4.32014 7.25232 3.74438 7.62531 2.66488 7.28959C1.58532 6.95392 0.325882 6.50627 0.325882 6.50627C0.325882 6.50627 -0.537682 5.94674 0.937648 5.34989Z" fill="white"/>
</svg>
