<svg width="15" height="12" viewBox="0 0 15 12" fill="none" xmlns="http://www.w3.org/2000/svg">
<path d="M14.9477 1.43862C14.4592 1.64292 13.9358 1.77912 13.4474 1.84722C13.6916 1.81317 14.0405 1.37052 14.1801 1.20027C14.3894 0.927865 14.5639 0.621415 14.6685 0.314964C14.6685 0.280914 14.7034 0.246865 14.6685 0.246865C14.6336 0.246865 14.5988 0.246865 14.5988 0.246865C14.0405 0.553315 13.4474 0.757616 12.7844 0.927866C12.7495 0.927866 12.6798 0.927867 12.6449 0.893817C12.5751 0.825717 12.5402 0.791667 12.4704 0.723566C12.1913 0.519266 11.9122 0.314965 11.5982 0.212815C11.1795 0.0425645 10.7259 -0.0255377 10.2723 0.00851237C9.81873 0.0425625 9.40005 0.144713 9.01625 0.349013C8.63245 0.553314 8.28354 0.825715 8.00442 1.16622C7.72529 1.50672 7.51595 1.91532 7.41128 2.35797C7.3066 2.76657 7.3066 3.20922 7.37639 3.61782C7.37639 3.68592 7.37639 3.68592 7.3066 3.68592C4.82937 3.31137 2.80571 2.46012 1.13095 0.621415C1.06117 0.553315 1.02628 0.553315 0.956501 0.621415C0.223796 1.67697 0.572703 3.37947 1.47986 4.23072C1.58453 4.33287 1.7241 4.46908 1.86366 4.57123C1.82877 4.57123 1.20074 4.50313 0.677375 4.23072C0.607594 4.19667 0.572703 4.19668 0.572703 4.29883C0.572703 4.40098 0.572703 4.50313 0.607594 4.63933C0.747157 5.72893 1.51475 6.71638 2.56147 7.09093C2.70103 7.15903 2.8406 7.19308 2.94527 7.19308C2.70103 7.26118 2.4568 7.29523 1.75899 7.22713C1.6892 7.22713 1.65431 7.26118 1.68921 7.32928C2.21257 8.69129 3.32907 9.09989 4.13155 9.33824C4.23622 9.37229 4.3409 9.37229 4.48046 9.37229C4.48046 9.37229 4.48046 9.37229 4.44557 9.40634C4.16644 9.81494 3.2244 10.1214 2.77082 10.2576C1.96833 10.53 1.06117 10.6662 0.223796 10.564C0.0842336 10.53 0.0493429 10.53 0.0144522 10.564C-0.0204385 10.5981 0.0144522 10.6321 0.0493429 10.6662C0.223796 10.7683 0.39825 10.8705 0.572703 10.9726C1.13095 11.245 1.6892 11.4834 2.28235 11.6536C5.35273 12.4708 8.8069 11.8579 11.0748 9.64469C12.8891 7.90813 13.5171 5.49058 13.5171 3.07302C13.5171 2.97087 13.6218 2.93682 13.6916 2.86872C14.1452 2.52822 14.529 2.11962 14.8779 1.64292C14.9477 1.54077 14.9477 1.43862 14.9477 1.40457C15.0174 1.40457 15.0174 1.40457 14.9477 1.43862Z" fill="white"/>
</svg>
